# xmcd
#
# Track frame offsets: 
#        150
#        17717
#        47702
#        81307
#
# Disc length: 1266 seconds
#
# Revision: 1
# Processed by: cddbd v1.5.2PL0 Copyright (c) Steve Scherf et al.
# Submitted via: ExactAudioCopy v1.0b3
#
DISCID=2904f004
DTITLE=Starsplash - Travel Time
DYEAR=2003
DGENRE=Dance
TTITLE0=Travel Time (Radio Edit)
TTITLE1=Travel Time (Club Mix)
TTITLE2=Travel Time (Redwing Remix)
TTITLE3=Vittel
EXTD=
EXTT0=
EXTT1=
EXTT2=
EXTT3=
PLAYORDER=
